<mxfile host="app.diagrams.net" modified="2023-07-02T13:35:38.165Z" agent="Mozilla/5.0 (X11; Linux x86_64; rv:109.0) Gecko/20100101 Firefox/115.0" etag="D3tl5hk9O1KN9wMcMNSA" version="21.4.0" type="github">
  <diagram name="Page-1" id="N7XQ-NpPyHRfWjEzvuei">
    <mxGraphModel dx="1320" dy="866" grid="1" gridSize="10" guides="1" tooltips="1" connect="1" arrows="1" fold="1" page="1" pageScale="1" pageWidth="1169" pageHeight="827" math="0" shadow="0">
      <root>
        <mxCell id="0" />
        <mxCell id="1" parent="0" />
        <mxCell id="uBLuWszOSWkxi3RJ4TNS-1" value="&lt;h3&gt;Users&lt;/h3&gt;" style="sketch=0;outlineConnect=0;fontColor=#232F3E;gradientColor=none;fillColor=#232F3D;strokeColor=none;dashed=0;verticalLabelPosition=bottom;verticalAlign=top;align=center;html=1;fontSize=12;fontStyle=0;aspect=fixed;pointerEvents=1;shape=mxgraph.aws4.users;" vertex="1" parent="1">
          <mxGeometry x="70" y="375" width="78" height="78" as="geometry" />
        </mxCell>
        <mxCell id="uBLuWszOSWkxi3RJ4TNS-2" value="&lt;h3&gt;Route 53&lt;/h3&gt;" style="sketch=0;points=[[0,0,0],[0.25,0,0],[0.5,0,0],[0.75,0,0],[1,0,0],[0,1,0],[0.25,1,0],[0.5,1,0],[0.75,1,0],[1,1,0],[0,0.25,0],[0,0.5,0],[0,0.75,0],[1,0.25,0],[1,0.5,0],[1,0.75,0]];outlineConnect=0;fontColor=#232F3E;gradientColor=#945DF2;gradientDirection=north;fillColor=#5A30B5;strokeColor=#ffffff;dashed=0;verticalLabelPosition=bottom;verticalAlign=top;align=center;html=1;fontSize=12;fontStyle=0;aspect=fixed;shape=mxgraph.aws4.resourceIcon;resIcon=mxgraph.aws4.route_53;" vertex="1" parent="1">
          <mxGeometry x="326" y="210" width="78" height="78" as="geometry" />
        </mxCell>
        <mxCell id="uBLuWszOSWkxi3RJ4TNS-3" value="&lt;h3&gt;Multi AZ&lt;br&gt;&lt;/h3&gt;" style="fillColor=none;strokeColor=#147EBA;dashed=1;verticalAlign=top;fontStyle=0;fontColor=#147EBA;whiteSpace=wrap;html=1;" vertex="1" parent="1">
          <mxGeometry x="300" y="323" width="130" height="181" as="geometry" />
        </mxCell>
        <mxCell id="uBLuWszOSWkxi3RJ4TNS-4" value="&lt;h4&gt;Elastic load balancer&lt;br&gt;&lt;/h4&gt;" style="sketch=0;points=[[0,0,0],[0.25,0,0],[0.5,0,0],[0.75,0,0],[1,0,0],[0,1,0],[0.25,1,0],[0.5,1,0],[0.75,1,0],[1,1,0],[0,0.25,0],[0,0.5,0],[0,0.75,0],[1,0.25,0],[1,0.5,0],[1,0.75,0]];outlineConnect=0;fontColor=#232F3E;gradientColor=#F78E04;gradientDirection=north;fillColor=#D05C17;strokeColor=#ffffff;dashed=0;verticalLabelPosition=bottom;verticalAlign=top;align=center;html=1;fontSize=12;fontStyle=0;aspect=fixed;shape=mxgraph.aws4.resourceIcon;resIcon=mxgraph.aws4.elastic_load_balancing;" vertex="1" parent="1">
          <mxGeometry x="326" y="375" width="78" height="78" as="geometry" />
        </mxCell>
        <mxCell id="uBLuWszOSWkxi3RJ4TNS-5" value="Auto Scaling group" style="points=[[0,0],[0.25,0],[0.5,0],[0.75,0],[1,0],[1,0.25],[1,0.5],[1,0.75],[1,1],[0.75,1],[0.5,1],[0.25,1],[0,1],[0,0.75],[0,0.5],[0,0.25]];outlineConnect=0;gradientColor=none;html=1;whiteSpace=wrap;fontSize=12;fontStyle=0;container=1;pointerEvents=0;collapsible=0;recursiveResize=0;shape=mxgraph.aws4.groupCenter;grIcon=mxgraph.aws4.group_auto_scaling_group;grStroke=1;strokeColor=#D86613;fillColor=none;verticalAlign=top;align=center;fontColor=#D86613;dashed=1;spacingTop=25;" vertex="1" parent="1">
          <mxGeometry x="526" y="160" width="250" height="570" as="geometry" />
        </mxCell>
        <mxCell id="uBLuWszOSWkxi3RJ4TNS-6" value="&lt;h3&gt;Availability zone 1&lt;/h3&gt;" style="fillColor=none;strokeColor=#147EBA;dashed=1;verticalAlign=top;fontStyle=0;fontColor=#147EBA;whiteSpace=wrap;html=1;" vertex="1" parent="uBLuWszOSWkxi3RJ4TNS-5">
          <mxGeometry x="35" y="50" width="180" height="150" as="geometry" />
        </mxCell>
        <mxCell id="uBLuWszOSWkxi3RJ4TNS-8" value="&lt;h4&gt;EC2 instance&lt;/h4&gt;" style="sketch=0;outlineConnect=0;fontColor=#232F3E;gradientColor=none;fillColor=#D45B07;strokeColor=none;dashed=0;verticalLabelPosition=bottom;verticalAlign=top;align=center;html=1;fontSize=12;fontStyle=0;aspect=fixed;pointerEvents=1;shape=mxgraph.aws4.m5_instance;fontFamily=Helvetica;" vertex="1" parent="uBLuWszOSWkxi3RJ4TNS-5">
          <mxGeometry x="95.5" y="105" width="59" height="59" as="geometry" />
        </mxCell>
        <mxCell id="uBLuWszOSWkxi3RJ4TNS-10" value="&lt;h3&gt;Availability zone 2&lt;br&gt;&lt;/h3&gt;" style="fillColor=none;strokeColor=#147EBA;dashed=1;verticalAlign=top;fontStyle=0;fontColor=#147EBA;whiteSpace=wrap;html=1;" vertex="1" parent="uBLuWszOSWkxi3RJ4TNS-5">
          <mxGeometry x="35" y="220" width="180" height="150" as="geometry" />
        </mxCell>
        <mxCell id="uBLuWszOSWkxi3RJ4TNS-11" value="&lt;h4&gt;EC2 instance&lt;br&gt;&lt;/h4&gt;" style="sketch=0;outlineConnect=0;fontColor=#232F3E;gradientColor=none;fillColor=#D45B07;strokeColor=none;dashed=0;verticalLabelPosition=bottom;verticalAlign=top;align=center;html=1;fontSize=12;fontStyle=0;aspect=fixed;pointerEvents=1;shape=mxgraph.aws4.m5_instance;fontFamily=Helvetica;" vertex="1" parent="uBLuWszOSWkxi3RJ4TNS-5">
          <mxGeometry x="95.5" y="275" width="59" height="59" as="geometry" />
        </mxCell>
        <mxCell id="uBLuWszOSWkxi3RJ4TNS-13" value="&lt;h3&gt;Availability zone 3&lt;br&gt;&lt;/h3&gt;" style="fillColor=none;strokeColor=#147EBA;dashed=1;verticalAlign=top;fontStyle=0;fontColor=#147EBA;whiteSpace=wrap;html=1;" vertex="1" parent="uBLuWszOSWkxi3RJ4TNS-5">
          <mxGeometry x="35" y="390" width="180" height="150" as="geometry" />
        </mxCell>
        <mxCell id="uBLuWszOSWkxi3RJ4TNS-14" value="&lt;h4&gt;EC2 instance&lt;br&gt;&lt;/h4&gt;" style="sketch=0;outlineConnect=0;fontColor=#232F3E;gradientColor=none;fillColor=#D45B07;strokeColor=none;dashed=0;verticalLabelPosition=bottom;verticalAlign=top;align=center;html=1;fontSize=12;fontStyle=0;aspect=fixed;pointerEvents=1;shape=mxgraph.aws4.m5_instance;fontFamily=Helvetica;" vertex="1" parent="uBLuWszOSWkxi3RJ4TNS-5">
          <mxGeometry x="95.5" y="445" width="59" height="59" as="geometry" />
        </mxCell>
        <mxCell id="uBLuWszOSWkxi3RJ4TNS-9" value="" style="endArrow=classic;startArrow=classic;html=1;rounded=0;fontFamily=Helvetica;fontSize=12;fontColor=#232F3E;exitX=1;exitY=0.25;exitDx=0;exitDy=0;exitPerimeter=0;entryX=0.025;entryY=0.576;entryDx=0;entryDy=0;entryPerimeter=0;" edge="1" parent="1" source="uBLuWszOSWkxi3RJ4TNS-4" target="uBLuWszOSWkxi3RJ4TNS-8">
          <mxGeometry width="50" height="50" relative="1" as="geometry">
            <mxPoint x="576" y="410" as="sourcePoint" />
            <mxPoint x="626" y="360" as="targetPoint" />
          </mxGeometry>
        </mxCell>
        <mxCell id="uBLuWszOSWkxi3RJ4TNS-12" value="" style="endArrow=classic;startArrow=classic;html=1;rounded=0;fontFamily=Helvetica;fontSize=12;fontColor=#232F3E;exitX=1;exitY=0.5;exitDx=0;exitDy=0;exitPerimeter=0;entryX=0.025;entryY=0.576;entryDx=0;entryDy=0;entryPerimeter=0;fillColor=#dae8fc;strokeColor=#6c8ebf;" edge="1" parent="1" target="uBLuWszOSWkxi3RJ4TNS-11" source="uBLuWszOSWkxi3RJ4TNS-4">
          <mxGeometry width="50" height="50" relative="1" as="geometry">
            <mxPoint x="404" y="565" as="sourcePoint" />
            <mxPoint x="626" y="530" as="targetPoint" />
          </mxGeometry>
        </mxCell>
        <mxCell id="uBLuWszOSWkxi3RJ4TNS-15" value="" style="endArrow=classic;startArrow=classic;html=1;rounded=0;fontFamily=Helvetica;fontSize=12;fontColor=#232F3E;exitX=1;exitY=0.75;exitDx=0;exitDy=0;exitPerimeter=0;entryX=0.025;entryY=0.576;entryDx=0;entryDy=0;entryPerimeter=0;fillColor=#fff2cc;strokeColor=#d6b656;" edge="1" parent="1" target="uBLuWszOSWkxi3RJ4TNS-14" source="uBLuWszOSWkxi3RJ4TNS-4">
          <mxGeometry width="50" height="50" relative="1" as="geometry">
            <mxPoint x="404" y="735" as="sourcePoint" />
            <mxPoint x="626" y="700" as="targetPoint" />
          </mxGeometry>
        </mxCell>
        <mxCell id="uBLuWszOSWkxi3RJ4TNS-16" value="" style="endArrow=classic;startArrow=classic;html=1;rounded=0;fontFamily=Helvetica;fontSize=12;fontColor=#232F3E;entryX=0;entryY=0.5;entryDx=0;entryDy=0;entryPerimeter=0;" edge="1" parent="1" source="uBLuWszOSWkxi3RJ4TNS-1" target="uBLuWszOSWkxi3RJ4TNS-2">
          <mxGeometry width="50" height="50" relative="1" as="geometry">
            <mxPoint x="98" y="300" as="sourcePoint" />
            <mxPoint x="148" y="250" as="targetPoint" />
            <Array as="points">
              <mxPoint x="110" y="249" />
            </Array>
          </mxGeometry>
        </mxCell>
        <mxCell id="uBLuWszOSWkxi3RJ4TNS-17" value="" style="endArrow=classic;html=1;rounded=0;fontFamily=Helvetica;fontSize=12;fontColor=#232F3E;entryX=0.013;entryY=0.167;entryDx=0;entryDy=0;entryPerimeter=0;exitX=0.949;exitY=0.179;exitDx=0;exitDy=0;exitPerimeter=0;" edge="1" parent="1" source="uBLuWszOSWkxi3RJ4TNS-1" target="uBLuWszOSWkxi3RJ4TNS-4">
          <mxGeometry width="50" height="50" relative="1" as="geometry">
            <mxPoint x="160" y="400" as="sourcePoint" />
            <mxPoint x="210" y="350" as="targetPoint" />
          </mxGeometry>
        </mxCell>
        <mxCell id="uBLuWszOSWkxi3RJ4TNS-19" value="" style="endArrow=classic;html=1;rounded=0;fontFamily=Helvetica;fontSize=12;fontColor=#232F3E;entryX=0;entryY=0.5;entryDx=0;entryDy=0;entryPerimeter=0;fillColor=#dae8fc;strokeColor=#6c8ebf;" edge="1" parent="1" source="uBLuWszOSWkxi3RJ4TNS-1" target="uBLuWszOSWkxi3RJ4TNS-4">
          <mxGeometry width="50" height="50" relative="1" as="geometry">
            <mxPoint x="154" y="399" as="sourcePoint" />
            <mxPoint x="307" y="398" as="targetPoint" />
          </mxGeometry>
        </mxCell>
        <mxCell id="uBLuWszOSWkxi3RJ4TNS-20" value="" style="endArrow=classic;html=1;rounded=0;fontFamily=Helvetica;fontSize=12;fontColor=#232F3E;entryX=0;entryY=0.75;entryDx=0;entryDy=0;entryPerimeter=0;fillColor=#fff2cc;strokeColor=#d6b656;" edge="1" parent="1" target="uBLuWszOSWkxi3RJ4TNS-4">
          <mxGeometry width="50" height="50" relative="1" as="geometry">
            <mxPoint x="148" y="436.06684491978604" as="sourcePoint" />
            <mxPoint x="296" y="451.5" as="targetPoint" />
          </mxGeometry>
        </mxCell>
        <mxCell id="uBLuWszOSWkxi3RJ4TNS-21" value="&lt;h4&gt;ElastiCache (Redis)&lt;br&gt;Multi AZ&lt;br&gt;&lt;/h4&gt;" style="sketch=0;points=[[0,0,0],[0.25,0,0],[0.5,0,0],[0.75,0,0],[1,0,0],[0,1,0],[0.25,1,0],[0.5,1,0],[0.75,1,0],[1,1,0],[0,0.25,0],[0,0.5,0],[0,0.75,0],[1,0.25,0],[1,0.5,0],[1,0.75,0]];outlineConnect=0;fontColor=#232F3E;gradientColor=#4D72F3;gradientDirection=north;fillColor=#3334B9;strokeColor=#ffffff;dashed=0;verticalLabelPosition=bottom;verticalAlign=top;align=center;html=1;fontSize=12;fontStyle=0;aspect=fixed;shape=mxgraph.aws4.resourceIcon;resIcon=mxgraph.aws4.elasticache;pointerEvents=1;fontFamily=Helvetica;" vertex="1" parent="1">
          <mxGeometry x="890" y="240" width="78" height="78" as="geometry" />
        </mxCell>
        <mxCell id="uBLuWszOSWkxi3RJ4TNS-22" value="&lt;h4&gt;Amazon DynamoDB (alternative)&lt;br&gt;&lt;/h4&gt;" style="sketch=0;points=[[0,0,0],[0.25,0,0],[0.5,0,0],[0.75,0,0],[1,0,0],[0,1,0],[0.25,1,0],[0.5,1,0],[0.75,1,0],[1,1,0],[0,0.25,0],[0,0.5,0],[0,0.75,0],[1,0.25,0],[1,0.5,0],[1,0.75,0]];outlineConnect=0;fontColor=#232F3E;gradientColor=#4D72F3;gradientDirection=north;fillColor=#3334B9;strokeColor=#ffffff;dashed=0;verticalLabelPosition=bottom;verticalAlign=top;align=center;html=1;fontSize=12;fontStyle=0;aspect=fixed;shape=mxgraph.aws4.resourceIcon;resIcon=mxgraph.aws4.dynamodb;pointerEvents=1;fontFamily=Helvetica;" vertex="1" parent="1">
          <mxGeometry x="890" y="693" width="78" height="78" as="geometry" />
        </mxCell>
        <mxCell id="uBLuWszOSWkxi3RJ4TNS-23" value="&lt;h4&gt;Amazon RDS Multi AZ&lt;br&gt;&lt;/h4&gt;" style="sketch=0;points=[[0,0,0],[0.25,0,0],[0.5,0,0],[0.75,0,0],[1,0,0],[0,1,0],[0.25,1,0],[0.5,1,0],[0.75,1,0],[1,1,0],[0,0.25,0],[0,0.5,0],[0,0.75,0],[1,0.25,0],[1,0.5,0],[1,0.75,0]];outlineConnect=0;fontColor=#232F3E;gradientColor=#4D72F3;gradientDirection=north;fillColor=#3334B9;strokeColor=#ffffff;dashed=0;verticalLabelPosition=bottom;verticalAlign=top;align=center;html=1;fontSize=12;fontStyle=0;aspect=fixed;shape=mxgraph.aws4.resourceIcon;resIcon=mxgraph.aws4.rds;pointerEvents=1;fontFamily=Helvetica;whiteSpace=wrap;" vertex="1" parent="1">
          <mxGeometry x="890" y="416" width="78" height="78" as="geometry" />
        </mxCell>
        <mxCell id="uBLuWszOSWkxi3RJ4TNS-24" value="" style="endArrow=classic;startArrow=classic;html=1;rounded=0;fontFamily=Helvetica;fontSize=12;fontColor=#232F3E;entryX=0;entryY=0.5;entryDx=0;entryDy=0;entryPerimeter=0;" edge="1" parent="1" source="uBLuWszOSWkxi3RJ4TNS-8" target="uBLuWszOSWkxi3RJ4TNS-21">
          <mxGeometry width="50" height="50" relative="1" as="geometry">
            <mxPoint x="570" y="440" as="sourcePoint" />
            <mxPoint x="790" y="330" as="targetPoint" />
          </mxGeometry>
        </mxCell>
        <mxCell id="uBLuWszOSWkxi3RJ4TNS-26" value="" style="endArrow=classic;startArrow=classic;html=1;rounded=0;fontFamily=Helvetica;fontSize=12;fontColor=#232F3E;exitX=0;exitY=0.5;exitDx=0;exitDy=0;exitPerimeter=0;" edge="1" parent="1" source="uBLuWszOSWkxi3RJ4TNS-23" target="uBLuWszOSWkxi3RJ4TNS-11">
          <mxGeometry width="50" height="50" relative="1" as="geometry">
            <mxPoint x="570" y="440" as="sourcePoint" />
            <mxPoint x="620" y="390" as="targetPoint" />
          </mxGeometry>
        </mxCell>
        <mxCell id="uBLuWszOSWkxi3RJ4TNS-27" value="&lt;h2 align=&quot;left&quot;&gt;Open HTTP / HTTPS&lt;br&gt;to 0.0.0.0/0&lt;br&gt;&lt;/h2&gt;" style="text;html=1;strokeColor=none;fillColor=none;align=left;verticalAlign=middle;whiteSpace=wrap;rounded=0;fontSize=12;fontFamily=Helvetica;fontColor=#232F3E;" vertex="1" parent="1">
          <mxGeometry x="116" y="310" width="180" height="40" as="geometry" />
        </mxCell>
        <mxCell id="uBLuWszOSWkxi3RJ4TNS-28" value="&lt;h1&gt;Basic stateful ecommerce Web application on AWS&lt;/h1&gt;" style="text;strokeColor=none;fillColor=none;html=1;fontSize=12;fontStyle=1;verticalAlign=middle;align=center;fontFamily=Helvetica;fontColor=#232F3E;" vertex="1" parent="1">
          <mxGeometry x="240" y="50" width="690" height="40" as="geometry" />
        </mxCell>
        <mxCell id="uBLuWszOSWkxi3RJ4TNS-29" value="&lt;h2 align=&quot;left&quot;&gt;Restrict traffic to EC2 security group from the load balancer&lt;br&gt;&lt;/h2&gt;" style="text;html=1;strokeColor=none;fillColor=none;align=left;verticalAlign=middle;whiteSpace=wrap;rounded=0;fontSize=12;fontFamily=Helvetica;fontColor=#232F3E;" vertex="1" parent="1">
          <mxGeometry x="170" y="530" width="340" height="30" as="geometry" />
        </mxCell>
        <mxCell id="uBLuWszOSWkxi3RJ4TNS-30" value="&lt;h2 align=&quot;left&quot;&gt;Restrict traffic to ElasticCache security group from the EC2 security group&lt;br&gt;&lt;/h2&gt;" style="text;html=1;strokeColor=none;fillColor=none;align=left;verticalAlign=middle;whiteSpace=wrap;rounded=0;fontSize=12;fontFamily=Helvetica;fontColor=#232F3E;" vertex="1" parent="1">
          <mxGeometry x="810" y="130" width="340" height="30" as="geometry" />
        </mxCell>
        <mxCell id="uBLuWszOSWkxi3RJ4TNS-31" value="&lt;h2 align=&quot;left&quot;&gt;Restrict traffic to RDS security group from the EC2 security group&lt;br&gt;&lt;/h2&gt;" style="text;html=1;strokeColor=none;fillColor=none;align=left;verticalAlign=middle;whiteSpace=wrap;rounded=0;fontSize=12;fontFamily=Helvetica;fontColor=#232F3E;" vertex="1" parent="1">
          <mxGeometry x="820" y="580" width="340" height="30" as="geometry" />
        </mxCell>
        <mxCell id="uBLuWszOSWkxi3RJ4TNS-32" value="&lt;h2&gt;3-tier architecture:&lt;/h2&gt;&lt;h2&gt;Client tier, Web tier and Database tier&lt;/h2&gt;" style="text;html=1;strokeColor=none;fillColor=none;align=left;verticalAlign=middle;whiteSpace=wrap;rounded=0;fontSize=12;fontFamily=Helvetica;fontColor=#232F3E;" vertex="1" parent="1">
          <mxGeometry x="80" y="110" width="420" height="30" as="geometry" />
        </mxCell>
        <mxCell id="uBLuWszOSWkxi3RJ4TNS-33" value="&lt;h3&gt;Store / retrieve session ID data (shopping cart with products)&lt;/h3&gt;&lt;h3&gt;&lt;br&gt;Much more secure as attackers cannot change data as with cookies.&lt;/h3&gt;" style="text;html=1;strokeColor=none;fillColor=none;align=left;verticalAlign=middle;whiteSpace=wrap;rounded=0;fontSize=12;fontFamily=Helvetica;fontColor=#232F3E;" vertex="1" parent="1">
          <mxGeometry x="1000" y="270" width="140" height="30" as="geometry" />
        </mxCell>
        <mxCell id="uBLuWszOSWkxi3RJ4TNS-34" value="&lt;br&gt;&lt;h3&gt;Alternative to ElastiCache&lt;br&gt;&lt;br&gt;Store / retrieve session ID data (shopping cart with products)&lt;/h3&gt;" style="text;html=1;strokeColor=none;fillColor=none;align=left;verticalAlign=middle;whiteSpace=wrap;rounded=0;fontSize=12;fontFamily=Helvetica;fontColor=#232F3E;" vertex="1" parent="1">
          <mxGeometry x="1000" y="650" width="140" height="130" as="geometry" />
        </mxCell>
        <mxCell id="uBLuWszOSWkxi3RJ4TNS-35" value="&lt;h3&gt;Store / retrieve user data&lt;br&gt;(address, name, referral link, coupon)&lt;br&gt;&lt;/h3&gt;" style="text;html=1;strokeColor=none;fillColor=none;align=left;verticalAlign=middle;whiteSpace=wrap;rounded=0;fontSize=12;fontFamily=Helvetica;fontColor=#232F3E;" vertex="1" parent="1">
          <mxGeometry x="1000" y="440" width="140" height="30" as="geometry" />
        </mxCell>
        <mxCell id="uBLuWszOSWkxi3RJ4TNS-38" value="" style="endArrow=classic;startArrow=classic;html=1;rounded=0;fontFamily=Helvetica;fontSize=12;fontColor=#232F3E;entryX=0;entryY=0.25;entryDx=0;entryDy=0;entryPerimeter=0;" edge="1" parent="1" source="uBLuWszOSWkxi3RJ4TNS-8" target="uBLuWszOSWkxi3RJ4TNS-23">
          <mxGeometry width="50" height="50" relative="1" as="geometry">
            <mxPoint x="770" y="470" as="sourcePoint" />
            <mxPoint x="820" y="420" as="targetPoint" />
          </mxGeometry>
        </mxCell>
        <mxCell id="uBLuWszOSWkxi3RJ4TNS-39" value="" style="endArrow=classic;startArrow=classic;html=1;rounded=0;fontFamily=Helvetica;fontSize=12;fontColor=#232F3E;entryX=0;entryY=0.75;entryDx=0;entryDy=0;entryPerimeter=0;" edge="1" parent="1" source="uBLuWszOSWkxi3RJ4TNS-14" target="uBLuWszOSWkxi3RJ4TNS-23">
          <mxGeometry width="50" height="50" relative="1" as="geometry">
            <mxPoint x="770" y="470" as="sourcePoint" />
            <mxPoint x="820" y="420" as="targetPoint" />
          </mxGeometry>
        </mxCell>
        <mxCell id="uBLuWszOSWkxi3RJ4TNS-44" value="&lt;div style=&quot;line-height: 0%;&quot;&gt;&lt;h3 style=&quot;line-height: 0%;&quot;&gt;- ElastiCache (must be Redis):&lt;/h3&gt;&lt;/div&gt;&lt;div style=&quot;line-height: 0%;&quot;&gt;&lt;h3 style=&quot;line-height: 0%;&quot;&gt;Store sessions (alternative DynamoDB)&lt;/h3&gt;&lt;/div&gt;&lt;div style=&quot;line-height: 0%;&quot;&gt;&lt;h3 style=&quot;line-height: 0%;&quot;&gt;Caching data from RDS (Lazy load)&lt;/h3&gt;&lt;/div&gt;&lt;div style=&quot;line-height: 0%;&quot;&gt;&lt;h3 style=&quot;line-height: 0%;&quot;&gt;Multi AZ for disaster recovery&lt;/h3&gt;&lt;/div&gt;&lt;div style=&quot;line-height: 0%;&quot;&gt;&lt;h3 style=&quot;line-height: 0%;&quot;&gt;&lt;br&gt;&lt;/h3&gt;&lt;/div&gt;&lt;div style=&quot;line-height: 0%;&quot;&gt;&lt;h3 style=&quot;line-height: 0%;&quot;&gt;- RDS:&lt;/h3&gt;&lt;/div&gt;&lt;div style=&quot;line-height: 0%;&quot;&gt;&lt;h3 style=&quot;line-height: 0%;&quot;&gt;Storing user data&lt;/h3&gt;&lt;/div&gt;&lt;div style=&quot;line-height: 0%;&quot;&gt;&lt;h3 style=&quot;line-height: 0%;&quot;&gt;Read replicas for scaling reads&lt;/h3&gt;&lt;/div&gt;&lt;div style=&quot;line-height: 0%;&quot;&gt;&lt;h3 style=&quot;line-height: 0%;&quot;&gt;Multi AZ for disaster recovery&lt;/h3&gt;&lt;/div&gt;&lt;div style=&quot;line-height: 0%;&quot;&gt;&lt;h3 style=&quot;line-height: 0%;&quot;&gt;&lt;br&gt;&lt;/h3&gt;&lt;/div&gt;&lt;div style=&quot;line-height: 0%;&quot;&gt;&lt;h3&gt;Tight security with security groups referencing only each other&lt;/h3&gt;&lt;/div&gt;" style="text;html=1;strokeColor=none;fillColor=none;align=left;verticalAlign=top;whiteSpace=wrap;rounded=0;fontSize=12;fontFamily=Helvetica;fontColor=#232F3E;" vertex="1" parent="1">
          <mxGeometry x="70" y="590" width="460" height="200" as="geometry" />
        </mxCell>
      </root>
    </mxGraphModel>
  </diagram>
</mxfile>
